<svg class="flex-container" xmlns="http://www.w3.org/2000/svg" xml:space="preserve" viewBox="0 -3 20 15 " style="width:100%;" preserveAspectRatio="None">
  <path fill="#ffa467" d="M 20.153 7.259 C 18.973 6.056 17.361 7.303 15.298 7.248 Q 12.583 6.431 13.819 3.198 Q 14.468 2.389 14.474 3.104 C 14.3293 3.4157 14.056 3.621 14.04 4.039 C 14.2333 3.8547 14.4 3.841 14.546 3.533 Q 14.776 3.423 14.682 3.705 C 14.536 4.018 14.38 3.961 14.056 4.582 Q 13.859 5.249 14.147 5.832 L 14.445 5.303 C 14.412 5.092 14.046 4.766 14.42 4.258 Q 14.746 4.026 14.624 4.453 C 14.428 4.567 14.506 4.921 14.587 4.99 C 14.811 4.64 14.896 4.319 14.945 3.818 Q 15.075 3.436 15.275 3.753 L 15.291 3.92 C 15.462 3.908 15.462 3.419 15.299 2.899 C 15.377 2.532 15.527 2.589 15.478 2.911 C 15.588 3.253 15.775 3.582 15.617 3.859 Q 15.556 4.091 15.243 4.331 Q 15.251 4.607 15.104 4.864 C 15.609 4.754 15.82 4.079 16.215 3.9 Q 16.561 3.818 16.382 4.087 C 16.13 4.107 15.983 4.579 15.723 4.787 Q 15.369 5.1 14.962 5.246 C 14.718 5.486 14.889 5.796 14.282 6.015 C 14.474 6.227 14.677 6.622 15.068 6.622 C 14.657 5.869 15.784 6.007 15.711 5.324 C 15.707 5.197 15.731 4.803 15.894 5.124 C 16.004 6.186 15.141 6.032 15.178 6.406 Q 15.194 6.56 15.406 6.683 Q 16.101 6.723 16.834 6.552 Q 17.766 6.166 18.777 6.3 C 18.047 5.603 16.345 5.985 16.975 3.962 C 16.761 3.6 16.439 3.821 16.131 3.406 C 16.01 3.319 15.863 3.238 15.923 2.91 Q 16.118 2.662 16.111 2.984 C 16.211 3.439 16.741 3.252 17.163 3.681 Q 17.484 3.359 17.35 2.388 Q 17.558 1.905 17.752 2.334 Q 17.913 2.763 17.833 3.225 Q 18.074 3.071 18.114 2.307 Q 18.208 2.14 18.342 2.294 Q 18.536 3.111 17.806 3.406 C 17.719 3.975 17.116 4.344 17.357 4.933 C 17.484 4.699 17.746 4.344 18.087 4.23 L 18.174 3.935 Q 18.302 3.681 18.346 3.904 C 18.281 4.664 17.825 4.616 17.549 5.177 C 17.691 5.429 18.102 5.397 18.35 5.608 Q 18.798 5.088 18.77 4.404 Q 18.611 4.192 18.558 3.891 Q 18.68 3.452 18.949 3.798 C 18.973 3.981 19.18 4.148 19.197 4.371 Q 19.6 3.973 19.502 3.659 Q 18.924 3.55 18.806 3.045 C 18.778 2.907 18.806 2.602 18.969 2.752 Q 19.002 2.87 18.989 3.021 C 19.05 3.175 19.103 3.118 19.242 3.293 L 19.404 3.314 Q 19.315 3.135 19.348 2.923 Q 19.278 2.711 19.4 2.5 C 19.669 2.345 19.468 2.7113 19.502 2.817 C 19.6 3.236 20.222 3.651 19.197 4.713 C 19.14 5.01 19.136 5.344 18.782 5.588 Q 18.681 5.816 18.982 5.987 C 19.234 5.673 19.934 5.515 20.031 5.23 C 20.048 5.149 20.064 4.97 20.158 5.083 L 20.166 5.507 C 19.975 5.873 19.442 5.914 19.218 6.235 C 19.653 6.381 19.914 6.532 20.181 6.691 Z"/>
</svg>
