<svg class="flex-container" xmlns="http://www.w3.org/2000/svg" xml:space="preserve" viewBox="0 0 20 10" style="width:100%;" preserveAspectRatio="None">
  <path fill="#ebbfff" d="M 4.351 8.5 Q 5.577 7.695 5.822 7.229 7.579 7.098 7.759 5.954 7.775 5.562 7.44 5.725 7.415 6.06 7.138 6.281 6.843 6.248 7.007 5.644 7.056 5.333 6.77 5.341 6.394 5.472 6.737 6.575 6.541 6.69 6.026 6.943 6.345 6.175 6.704 4.908 8.077 5.145 8.298 3.764 8.216 3.535 7.963 3.658 7.603 4.557 6.999 4.687 7.62 4.091 7.636 3.584 7.587 3.192 7.227 3.404 7.039 4.148 6.59 4.352 6.288 3.813 6.394 3.274 6.296 2.931 6.026 3.159 5.814 4.328 6.41 4.573 6.32 4.63 6.247 4.859 6.026 5.619 5.74 6.428 5.658 6.093 5.658 5.872 6.132 5.317 6.116 4.835 5.944 4.491 5.724 4.785 5.707 5.251 5.52 5.423 5.438 5.219 5.462 4.924 5.34 4.63 5.119 4.843 4.939 5.153 5.209 5.709 5.234 6.118 5.462 6.845 5.176 7.311 4.375 7.695 4.294 6.657 4.457 5.766 4.907 4.826 4.702 4.328 5.364 4.132 5.487 3.069 5.356 2.718 5.127 2.931 4.776 3.952 4.547 3.887 4.354 3.155 4.751 2.509 4.909 2.142 4.5 2.057 4.146 2.136 4 3.039 3.646 2.771 3.689 2.118 3.551 1.8 3.308 2.103 3.209 3.218 3.983 3.59 4.006 4.053 4.249 4.675 4.325 5.07 4.044 5.441 3.801 4.743 3.164 4.417 3.384 3.78 3.315 3.408 3.156 3.044 2.913 3.347 2.921 3.636 2.837 3.97 2.633 3.871 2.815 2.687 2.701 2.3 2.451 2.513 2.23 3.234 2.23 3.53 2.094 3.165 2.162 2.665 2.026 2.293 1.768 2.551 1.472 3.522 2.329 4.076 2.373 4.287 2.585 4.597 3.214 4.934 3.524 5.32 3.75 5.866 3.873 6.948 3.455 6.306 2.541 5.916 2.798 5.45 2.684 4.926 2.455 4.646 2.312 4.926 2.36 5.497 2.179 5.669 1.846 5.345 1.932 4.735 1.751 4.364 1.532 4.735 1.189 5.868 2.56 6.402 1.341 6.326 1.151 5.259.808 4.935.722 5.45 1.037 6.744 2.782 6.714S3.975 6.828 3.5 8.1 Z"/>
</svg>
