<svg class="flex-container" xmlns="http://www.w3.org/2000/svg" xml:space="preserve" viewBox="0 -3 20 10" style="width:100%;" preserveAspectRatio="None">
  <path xmlns="http://www.w3.org/2000/svg" fill="#d04343" d="M 1.048 2.86 Q 1.245 2.557 1.242 2.21 Q 1.185 1.62 0.822 1.628 Q 0.499 1.6 0 1.201 L 0 -1.745 Q 0.25 -1.5 0.523 -0.93 Q 0.725 -0.357 0.515 -0.067 Q 0.644 0.289 0.628 0.515 Q 0.967 0.5 1.306 0.967 Q 1.185 0.103 1.524 -0.648 C 1.242 -1.197 0.015 -2.076 0.725 -2.391 C 0.927 -2.423 1.338 -1.649 1.694 -1.293 C 1.71 -1.867 1.274 -2.884 2.113 -2.908 C 2.501 -2.859 2.137 -2.092 2.412 -1.487 C 2.493 -0.672 2.065 -0.462 1.992 0.248 C 1.928 1.386 2.533 1.532 2.799 0.289 Q 2.662 -1.067 3.574 -1.568 C 3.502 -2.068 3.397 -2.698 4.002 -2.892 C 4.519 -2.875 3.986 -2.214 4.099 -1.858 L 4.979 -2.133 C 6.141 -2.617 6.044 -1.592 5.075 -1.423 C 4.462 -1.334 3.461 -1.148 3.51 -0.18 C 4.091 -0.357 4.599 -0.801 4.987 -0.922 C 5.39 -0.914 5.293 -0.551 5.019 -0.309 C 4.591 -0.002 4.067 0.289 3.574 0.313 C 3.51 0.716 3.292 1.104 3.05 1.419 C 4.05 1.524 5.035 1.185 5.406 0.361 C 5.406 -0.026 5.745 -0.793 6.327 -1.108 C 6.738 -0.987 6.286 -0.607 6.141 -0.268 C 6.553 -0.406 6.996 -0.648 7.061 -0.155 C 7.061 0.248 6.391 0.224 6.028 0.749 C 5.713 1.532 4.93 2.161 2.331 1.903 C 1.96 1.976 2.008 2.589 2.105 3.135 Z  
"/>
</svg>
