<svg class="flex-container" xmlns="http://www.w3.org/2000/svg" xml:space="preserve" viewBox="0 0 20 10" style="width:100%;" preserveAspectRatio="None">
  <path fill="#d9cb50" d="M 14.63 8.169 Q 15.01 7.884 14.912 7.44 C 13.95 7.718 12.776 7.503 12.291 7.428 C 11.543 7.212 11.483 6.679 11.101 6.512 C 10.686 6.119 10.498 5.446 10.482 5.106 Q 10.654 4.422 11.047 4.934 C 11.026 5.295 11.279 5.618 11.344 5.903 C 12.011 6.323 12.044 6.986 12.997 6.959 Q 12.735 6.52 12.288 6.349 Q 11.859 6.035 12.061 5.859 C 12.224 5.779 12.344 6.081 12.719 6.182 C 13.115 6.339 13.237 6.645 13.377 6.897 C 13.601 7.226 14.712 7.137 15.054 6.798 C 15.205 6.531 15.284 6.459 14.322 6.23 C 14.051 6.089 13.852 5.74 13.24 5.919 C 12.759 5.841 12.098 5.815 11.853 5.239 C 11.667 5.063 11.526 4.808 11.637 4.35 Q 11.801 4.173 11.925 4.389 C 12.004 4.817 11.945 4.85 12.167 5.043 C 12.406 5.543 12.982 5.468 13.394 5.592 C 12.862 5.103 12.355 4.4 12.578 3.53 Q 12.813 3.147 13.016 3.523 Q 13.012 4.713 14.086 5.486 C 13.717 5.125 13.364 3.79 13.792 3.555 C 14.187 3.543 13.712 4.243 14.346 5.23 Q 14.556 5.528 14.581 5.796 L 15.182 5.951 C 15.172 5.64 14.795 4.563 14.461 3.868 C 14.311 3.405 14.327 2.98 14.461 2.662 C 14.488 2.511 14.645 3.012 14.769 3.222 C 14.801 3.75 14.925 3.836 15.205 4.385 C 15.161 4.03 15.269 3.648 15.242 3.281 Q 15.431 2.964 15.56 3.298 Q 15.614 4.305 15.323 4.633 C 15.404 5.118 15.733 5.586 15.733 6.06 C 16.336 5.926 15.797 4.989 16.142 4.418 Q 16.401 3.868 16.116 3.157 Q 16.234 2.581 16.579 3.007 C 17.047 3.976 16.595 4.358 16.573 4.983 Q 16.978 4.822 17.139 3.604 Q 17.376 3.227 17.532 3.604 C 17.478 4.294 17.274 5.091 16.584 5.479 C 16.509 5.813 16.509 6.233 16.196 6.518 Q 16.358 6.841 17.37 6.136 C 17.456 5.71 17.117 5.511 17.333 4.795 Q 17.532 4.396 17.672 4.806 C 17.537 5.204 17.7007 5.3947 17.715 5.689 Q 18.221 5.366 17.995 4.138 Q 18.173 3.707 18.453 4.019 C 18.908 4.974 18.527 5.699 17.933 6.563 Q 16.399 7.406 15.991 7.137 Q 15.68 7.496 16.019 7.8 Z 
"/>
</svg>
